<svg width="92" height="18" viewBox="0 0 92 18" fill="none" xmlns="http://www.w3.org/2000/svg">
<path d="M-4.29153e-06 17.0879V0.287889H8.208C10.32 0.287889 11.904 0.68789 12.96 1.48789C14.032 2.28789 14.568 3.34389 14.568 4.65589C14.568 5.53589 14.352 6.30389 13.92 6.95989C13.488 7.59989 12.896 8.09589 12.144 8.44789C11.392 8.79989 10.528 8.97589 9.552 8.97589L10.008 7.99189C11.064 7.99189 12 8.16789 12.816 8.51989C13.632 8.85589 14.264 9.35989 14.712 10.0319C15.176 10.7039 15.408 11.5279 15.408 12.5039C15.408 13.9439 14.84 15.0719 13.704 15.8879C12.568 16.6879 10.896 17.0879 8.688 17.0879H-4.29153e-06ZM3.864 14.1599H8.4C9.408 14.1599 10.168 13.9999 10.68 13.6799C11.208 13.3439 11.472 12.8159 11.472 12.0959C11.472 11.3919 11.208 10.8719 10.68 10.5359C10.168 10.1839 9.408 10.0079 8.4 10.0079H3.576V7.17589H7.728C8.672 7.17589 9.392 7.01589 9.888 6.69589C10.4 6.35989 10.656 5.85589 10.656 5.18389C10.656 4.52789 10.4 4.03989 9.888 3.71989C9.392 3.38389 8.672 3.21589 7.728 3.21589H3.864V14.1599ZM18.4516 17.0879V0.287889H22.3396V17.0879H18.4516ZM31.9466 17.3759C30.6026 17.3759 29.3146 17.1999 28.0826 16.8479C26.8506 16.4799 25.8586 16.0079 25.1066 15.4319L26.4266 12.5039C27.1466 13.0159 27.9946 13.4399 28.9706 13.7759C29.9626 14.0959 30.9626 14.2559 31.9706 14.2559C32.7386 14.2559 33.3546 14.1839 33.8186 14.0399C34.2986 13.8799 34.6506 13.6639 34.8746 13.3919C35.0986 13.1199 35.2106 12.8079 35.2106 12.4559C35.2106 12.0079 35.0346 11.6559 34.6826 11.3999C34.3306 11.1279 33.8666 10.9119 33.2906 10.7519C32.7146 10.5759 32.0746 10.4159 31.3706 10.2719C30.6826 10.1119 29.9866 9.91989 29.2826 9.69589C28.5946 9.47189 27.9626 9.18389 27.3866 8.83189C26.8106 8.47989 26.3386 8.01589 25.9706 7.43989C25.6186 6.86389 25.4426 6.12789 25.4426 5.23189C25.4426 4.27189 25.6986 3.39989 26.2106 2.61589C26.7386 1.81589 27.5226 1.18389 28.5626 0.71989C29.6186 0.23989 30.9386 -0.000109673 32.5226 -0.000109673C33.5786 -0.000109673 34.6186 0.12789 35.6426 0.38389C36.6666 0.623889 37.5706 0.991889 38.3546 1.48789L37.1546 4.43989C36.3706 3.99189 35.5866 3.66389 34.8026 3.45589C34.0186 3.23189 33.2506 3.11989 32.4986 3.11989C31.7466 3.11989 31.1306 3.20789 30.6506 3.38389C30.1706 3.55989 29.8266 3.79189 29.6186 4.07989C29.4106 4.35189 29.3066 4.67189 29.3066 5.03989C29.3066 5.47189 29.4826 5.82389 29.8346 6.09589C30.1866 6.35189 30.6506 6.55989 31.2266 6.71989C31.8026 6.87989 32.4346 7.03989 33.1226 7.19989C33.8266 7.35989 34.5226 7.54389 35.2106 7.75189C35.9146 7.95989 36.5546 8.23989 37.1306 8.59189C37.7066 8.94389 38.1706 9.40789 38.5226 9.98389C38.8906 10.5599 39.0746 11.2879 39.0746 12.1679C39.0746 13.1119 38.8106 13.9759 38.2826 14.7599C37.7546 15.5439 36.9626 16.1759 35.9066 16.6559C34.8666 17.1359 33.5466 17.3759 31.9466 17.3759ZM45.0769 17.0879V3.45589H39.7009V0.287889H54.3409V3.45589H48.9649V17.0879H45.0769ZM56.5328 17.0879V0.287889H63.8048C65.3088 0.287889 66.6048 0.53589 67.6928 1.03189C68.7808 1.51189 69.6208 2.20789 70.2128 3.11989C70.8048 4.03189 71.1008 5.11989 71.1008 6.38389C71.1008 7.63189 70.8048 8.71189 70.2128 9.62389C69.6208 10.5199 68.7808 11.2079 67.6928 11.6879C66.6048 12.1679 65.3088 12.4079 63.8048 12.4079H58.6928L60.4208 10.7039V17.0879H56.5328ZM67.2128 17.0879L63.0128 10.9919H67.1648L71.4128 17.0879H67.2128ZM60.4208 11.1359L58.6928 9.31189H63.5888C64.7888 9.31189 65.6848 9.05589 66.2768 8.54389C66.8688 8.01589 67.1648 7.29589 67.1648 6.38389C67.1648 5.45589 66.8688 4.73589 66.2768 4.22389C65.6848 3.71189 64.7888 3.45589 63.5888 3.45589H58.6928L60.4208 1.60789V11.1359ZM82.4412 17.3759C81.1132 17.3759 79.8812 17.1599 78.7452 16.7279C77.6252 16.2959 76.6492 15.6879 75.8172 14.9039C75.0012 14.1199 74.3612 13.1999 73.8972 12.1439C73.4492 11.0879 73.2252 9.93589 73.2252 8.68789C73.2252 7.43989 73.4492 6.28789 73.8972 5.23189C74.3612 4.17589 75.0092 3.25589 75.8412 2.47189C76.6732 1.68789 77.6492 1.07989 78.7692 0.647889C79.8892 0.21589 81.1052 -0.000109673 82.4172 -0.000109673C83.7452 -0.000109673 84.9612 0.21589 86.0652 0.647889C87.1852 1.07989 88.1532 1.68789 88.9692 2.47189C89.8012 3.25589 90.4492 4.17589 90.9132 5.23189C91.3772 6.27189 91.6092 7.42389 91.6092 8.68789C91.6092 9.93589 91.3772 11.0959 90.9132 12.1679C90.4492 13.2239 89.8012 14.1439 88.9692 14.9279C88.1532 15.6959 87.1852 16.2959 86.0652 16.7279C84.9612 17.1599 83.7532 17.3759 82.4412 17.3759ZM82.4172 14.0639C83.1692 14.0639 83.8572 13.9359 84.4812 13.6799C85.1212 13.4239 85.6812 13.0559 86.1612 12.5759C86.6412 12.0959 87.0092 11.5279 87.2652 10.8719C87.5372 10.2159 87.6732 9.48789 87.6732 8.68789C87.6732 7.88789 87.5372 7.15989 87.2652 6.50389C87.0092 5.84789 86.6412 5.27989 86.1612 4.79989C85.6972 4.31989 85.1452 3.95189 84.5052 3.69589C83.8652 3.43989 83.1692 3.31189 82.4172 3.31189C81.6652 3.31189 80.9692 3.43989 80.3292 3.69589C79.7052 3.95189 79.1532 4.31989 78.6732 4.79989C78.1932 5.27989 77.8172 5.84789 77.5452 6.50389C77.2892 7.15989 77.1612 7.88789 77.1612 8.68789C77.1612 9.47189 77.2892 10.1999 77.5452 10.8719C77.8172 11.5279 78.1852 12.0959 78.6492 12.5759C79.1292 13.0559 79.6892 13.4239 80.3292 13.6799C80.9692 13.9359 81.6652 14.0639 82.4172 14.0639Z" fill="#252B42"/>
</svg>
